<?xml version="1.0" encoding="utf-8"?>
<!-- Generator: Adobe Illustrator 27.5.0, SVG Export Plug-In . SVG Version: 6.00 Build 0)  -->
<svg version="1.1" id="Capa_1" xmlns="http://www.w3.org/2000/svg" xmlns:xlink="http://www.w3.org/1999/xlink" x="0px" y="0px"
	 viewBox="0 0 415.677 425.197" style="enable-background:new 0 0 415.677 425.197;" xml:space="preserve">
<rect y="0" style="fill:#FFFFFF;" width="415.677" height="425.197"/>
<g>
	<path style="fill:#6D6E71;" d="M82.87,73.851H72.332c0,0-23.654-3.121-28.211,25.488v197.137c0,0,0.226-1.029,0.851-2.61
		c-0.551,1.991-0.851,4.085-0.851,6.251c0,12.928,10.479,23.407,23.406,23.407h156.689v-3.34v-40.051v-3.423h0.001v-13.559v-47.78
		v-18.042v-4.693V73.851H82.87z"/>
	<g>
		<g>
			<rect x="78.681" y="65.479" style="fill:#D83633;" width="151.885" height="202.859"/>
			<path style="fill:#D1D3D4;" d="M226.822,208.211c-15.03,4.496-31.295,4.339-46.499,0.656
				c-24.081-5.835-46.477-19.338-62.672-38.134c-8.201-9.518-14.896-20.13-19.678-31.758c-4.563-11.096-6.733-22.607-8.132-34.47
				c-1.424-12.081-2.168-24.403-0.907-36.535c0.086-0.828,0.182-1.66,0.285-2.492H78.681v202.859h151.885v-61.339
				C229.325,207.427,228.078,207.836,226.822,208.211z"/>
			<path style="fill:#D1D3D4;" d="M201.145,254.676c-12.833-0.81-25.936-2.165-38.497-4.99c-14.77-3.323-29.105-9.214-41.908-17.31
				c-11.822-7.479-21.575-16.741-29.773-28.073c-4.599-6.355-8.683-13.073-12.287-20.041v84.074h151.885v-13.559
				C220.727,255.404,210.844,255.289,201.145,254.676z"/>
			<path style="fill:#FFFFFF;" d="M127.537,95.29c0.707,8.349,1.776,16.771,4.472,24.738c5.705,16.853,17.506,31.47,32.452,41.062
				c16.685,10.71,38.417,16.686,57.759,10.083c1.036-0.354,2.065-0.73,3.086-1.128V72.76h-97.587
				C126.719,80.206,126.904,87.836,127.537,95.29z"/>
			<rect x="95.043" y="104.506" style="fill:#FFFFFF;" width="119.918" height="29.112"/>
			<rect x="94.664" y="139.506" style="fill:#FFFFFF;" width="119.919" height="4.693"/>
			<rect x="94.664" y="196.292" style="fill:#FFFFFF;" width="119.919" height="4.692"/>
			<rect x="78.681" y="184.263" style="fill:#D69644;" width="151.885" height="4.693"/>
		</g>
		<path style="fill:#73110A;" d="M78.681,65.479c0,0-23.654-3.121-28.211,25.488v197.137c0,0,4.285-19.766,28.211-19.766V65.479z"/>
		<path style="fill:#73110A;" d="M230.564,268.337H73.876c-12.927,0-23.406,10.48-23.406,23.407
			c0,12.928,10.479,23.407,23.406,23.407h156.689V268.337z"/>
		<path style="fill:#EFE5C8;" d="M230.564,271.761l-157.16-0.042c-11.059,0-20.026,8.966-20.026,20.026
			c0,11.06,8.967,20.026,20.026,20.026l157.16,0.041V271.761z"/>
		<g>
			<g>
				<path style="fill:#BCBEC0;" d="M66.682,276.141c0,0,2.528-0.055,6.953-0.151c4.424-0.063,10.745-0.216,18.329-0.287
					c7.584-0.064,16.433-0.208,25.913-0.238c9.481-0.033,19.594-0.068,29.706-0.104c10.113,0.035,20.226,0.07,29.706,0.103
					c9.481,0.026,18.33,0.174,25.914,0.238c7.585,0.069,13.905,0.224,18.329,0.287c4.424,0.097,6.953,0.152,6.953,0.152
					s-2.528,0.055-6.953,0.152c-4.424,0.063-10.745,0.218-18.329,0.287c-7.584,0.064-16.433,0.212-25.914,0.238
					c-9.48,0.033-19.593,0.068-29.706,0.103c-10.112-0.035-20.225-0.071-29.706-0.103c-9.48-0.03-18.329-0.174-25.913-0.238
					c-7.585-0.071-13.905-0.224-18.329-0.287C69.21,276.196,66.682,276.141,66.682,276.141z"/>
			</g>
			<g>
				<path style="fill:#BCBEC0;" d="M66.682,279.955c0,0,2.528-0.055,6.953-0.151c4.424-0.063,10.745-0.216,18.329-0.287
					c7.584-0.064,16.433-0.208,25.913-0.238c9.481-0.033,19.594-0.068,29.706-0.104c10.113,0.035,20.226,0.07,29.706,0.103
					c9.481,0.026,18.33,0.174,25.914,0.238c7.585,0.069,13.905,0.224,18.329,0.287c4.424,0.097,6.953,0.152,6.953,0.152
					s-2.528,0.055-6.953,0.152c-4.424,0.063-10.745,0.218-18.329,0.287c-7.584,0.064-16.433,0.212-25.914,0.238
					c-9.48,0.033-19.593,0.068-29.706,0.103c-10.112-0.035-20.225-0.071-29.706-0.104c-9.48-0.03-18.329-0.174-25.913-0.238
					c-7.585-0.071-13.905-0.224-18.329-0.287C69.21,280.01,66.682,279.955,66.682,279.955z"/>
			</g>
			<g>
				<path style="fill:#BCBEC0;" d="M66.682,283.769c0,0,2.528-0.055,6.953-0.151c4.424-0.063,10.745-0.216,18.329-0.287
					c7.584-0.064,16.433-0.209,25.913-0.238c9.481-0.033,19.594-0.068,29.706-0.104c10.113,0.035,20.226,0.07,29.706,0.103
					c9.481,0.026,18.33,0.174,25.914,0.238c7.585,0.069,13.905,0.224,18.329,0.287c4.424,0.097,6.953,0.152,6.953,0.152
					s-2.528,0.055-6.953,0.152c-4.424,0.063-10.745,0.218-18.329,0.287c-7.584,0.064-16.433,0.212-25.914,0.238
					c-9.48,0.033-19.593,0.068-29.706,0.103c-10.112-0.035-20.225-0.07-29.706-0.104c-9.48-0.03-18.329-0.174-25.913-0.238
					c-7.585-0.071-13.905-0.224-18.329-0.287C69.21,283.824,66.682,283.769,66.682,283.769z"/>
			</g>
			<g>
				<path style="fill:#BCBEC0;" d="M66.682,287.583c0,0,2.528-0.055,6.953-0.151c4.424-0.063,10.745-0.216,18.329-0.287
					c7.584-0.064,16.433-0.208,25.913-0.238c9.481-0.033,19.594-0.068,29.706-0.104c10.113,0.035,20.226,0.07,29.706,0.103
					c9.481,0.026,18.33,0.174,25.914,0.238c7.585,0.069,13.905,0.224,18.329,0.287c4.424,0.097,6.953,0.152,6.953,0.152
					s-2.528,0.055-6.953,0.152c-4.424,0.063-10.745,0.218-18.329,0.287c-7.584,0.064-16.433,0.212-25.914,0.238
					c-9.48,0.033-19.593,0.068-29.706,0.103c-10.112-0.035-20.225-0.07-29.706-0.104c-9.48-0.03-18.329-0.174-25.913-0.238
					c-7.585-0.071-13.905-0.224-18.329-0.287C69.21,287.638,66.682,287.583,66.682,287.583z"/>
			</g>
			<g>
				<path style="fill:#BCBEC0;" d="M66.682,291.398c0,0,2.528-0.055,6.953-0.151c4.424-0.063,10.745-0.216,18.329-0.287
					c7.584-0.064,16.433-0.208,25.913-0.238c9.481-0.033,19.594-0.068,29.706-0.104c10.113,0.035,20.226,0.07,29.706,0.103
					c9.481,0.026,18.33,0.174,25.914,0.238c7.585,0.069,13.905,0.224,18.329,0.287c4.424,0.097,6.953,0.152,6.953,0.152
					s-2.528,0.055-6.953,0.152c-4.424,0.063-10.745,0.218-18.329,0.287c-7.584,0.064-16.433,0.212-25.914,0.238
					c-9.48,0.033-19.593,0.068-29.706,0.102c-10.112-0.035-20.225-0.07-29.706-0.103c-9.48-0.03-18.329-0.174-25.913-0.238
					c-7.585-0.071-13.905-0.224-18.329-0.287C69.21,291.453,66.682,291.398,66.682,291.398z"/>
			</g>
			<g>
				<path style="fill:#BCBEC0;" d="M66.682,295.213c0,0,2.528-0.055,6.953-0.151c4.424-0.063,10.745-0.216,18.329-0.287
					c7.584-0.064,16.433-0.208,25.913-0.238c9.481-0.033,19.594-0.068,29.706-0.104c10.113,0.035,20.226,0.07,29.706,0.103
					c9.481,0.026,18.33,0.174,25.914,0.238c7.585,0.069,13.905,0.224,18.329,0.287c4.424,0.097,6.953,0.152,6.953,0.152
					s-2.528,0.055-6.953,0.152c-4.424,0.063-10.745,0.218-18.329,0.287c-7.584,0.064-16.433,0.212-25.914,0.238
					c-9.48,0.033-19.593,0.068-29.706,0.103c-10.112-0.035-20.225-0.071-29.706-0.104c-9.48-0.03-18.329-0.174-25.913-0.238
					c-7.585-0.071-13.905-0.224-18.329-0.287C69.21,295.268,66.682,295.213,66.682,295.213z"/>
			</g>
			<g>
				<path style="fill:#BCBEC0;" d="M66.682,299.028c0,0,2.528-0.055,6.953-0.151c4.424-0.063,10.745-0.216,18.329-0.287
					c7.584-0.065,16.433-0.208,25.913-0.238c9.481-0.033,19.594-0.068,29.706-0.103c10.113,0.035,20.226,0.07,29.706,0.103
					c9.481,0.026,18.33,0.174,25.914,0.238c7.585,0.069,13.905,0.224,18.329,0.287c4.424,0.097,6.953,0.152,6.953,0.152
					s-2.528,0.055-6.953,0.152c-4.424,0.063-10.745,0.218-18.329,0.287c-7.584,0.064-16.433,0.212-25.914,0.238
					c-9.48,0.033-19.593,0.068-29.706,0.103c-10.112-0.035-20.225-0.07-29.706-0.103c-9.48-0.03-18.329-0.174-25.913-0.238
					c-7.585-0.071-13.905-0.224-18.329-0.287C69.21,299.082,66.682,299.028,66.682,299.028z"/>
			</g>
			<g>
				<path style="fill:#BCBEC0;" d="M66.682,302.843c0,0,2.528-0.055,6.953-0.151c4.424-0.063,10.745-0.216,18.329-0.287
					c7.584-0.064,16.433-0.209,25.913-0.238c9.481-0.033,19.594-0.068,29.706-0.104c10.113,0.035,20.226,0.07,29.706,0.103
					c9.481,0.026,18.33,0.174,25.914,0.238c7.585,0.069,13.905,0.224,18.329,0.287c4.424,0.097,6.953,0.152,6.953,0.152
					s-2.528,0.055-6.953,0.152c-4.424,0.063-10.745,0.218-18.329,0.287c-7.584,0.064-16.433,0.212-25.914,0.238
					c-9.48,0.033-19.593,0.068-29.706,0.103c-10.112-0.035-20.225-0.071-29.706-0.104c-9.48-0.03-18.329-0.174-25.913-0.238
					c-7.585-0.071-13.905-0.224-18.329-0.287C69.21,302.898,66.682,302.843,66.682,302.843z"/>
			</g>
			<g>
				<path style="fill:#BCBEC0;" d="M66.682,306.657c0,0,2.528-0.055,6.953-0.151c4.424-0.063,10.745-0.216,18.329-0.287
					c7.584-0.064,16.433-0.208,25.913-0.238c9.481-0.033,19.594-0.068,29.706-0.103c10.113,0.035,20.226,0.07,29.706,0.102
					c9.481,0.026,18.33,0.174,25.914,0.238c7.585,0.069,13.905,0.224,18.329,0.287c4.424,0.097,6.953,0.152,6.953,0.152
					s-2.528,0.055-6.953,0.152c-4.424,0.063-10.745,0.218-18.329,0.287c-7.584,0.064-16.433,0.212-25.914,0.238
					c-9.48,0.033-19.593,0.068-29.706,0.103c-10.112-0.035-20.225-0.07-29.706-0.104c-9.48-0.03-18.329-0.174-25.913-0.238
					c-7.585-0.071-13.905-0.224-18.329-0.287C69.21,306.711,66.682,306.657,66.682,306.657z"/>
			</g>
		</g>
	</g>
	<path style="fill:#6D6E71;" d="M296.528,357.517L144.26,319.731c-12.374-3.74-19.374-16.802-15.634-29.177
		c0.626-2.074,1.52-3.992,2.622-5.738c-1.055,1.333-1.569,2.252-1.569,2.252L186.708,98.36
		c12.639-26.067,34.378-16.237,34.378-16.237l10.088,3.049l135.304,40.89L296.528,357.517z"/>
	<g>
		<g>
			
				<rect x="173.456" y="119.884" transform="matrix(0.2931 -0.9561 0.9561 0.2931 7.0829 401.2333)" style="fill:#00B9C5;" width="202.858" height="151.886"/>
			<path style="fill:#D1D3D4;" d="M331.805,256.479c-15.688-0.108-31.191-5.025-44.648-13.003
				c-21.313-12.638-38.767-32.113-48.74-54.83c-5.051-11.504-8.341-23.612-9.504-36.131c-1.109-11.947,0.189-23.588,2.33-35.339
				c2.18-11.969,5.081-23.967,9.842-35.197c0.325-0.766,0.66-1.534,1.002-2.299l-10.075-3.089l-59.464,193.947l145.213,44.522
				l17.981-58.645C334.427,256.463,333.115,256.489,331.805,256.479z"/>
			<path style="fill:#D1D3D4;" d="M293.636,293.376c-12.032-4.537-24.162-9.673-35.343-16.055
				c-13.148-7.507-25.126-17.341-34.993-28.834c-9.11-10.615-15.72-22.33-20.236-35.567c-2.534-7.424-4.47-15.044-5.873-22.762
				l-24.645,80.381l145.213,44.522l3.975-12.963C312.144,299.813,302.728,296.805,293.636,293.376z"/>
			<path style="fill:#FFFFFF;" d="M269.982,119.415c-1.772,8.189-3.219,16.555-2.977,24.962c0.514,17.786,7.512,35.22,18.99,48.771
				c12.812,15.13,31.839,27.215,52.266,26.571c1.094-0.034,2.188-0.093,3.281-0.174l28.518-93.012l-93.301-28.606
				C273.622,104.754,271.563,112.103,269.982,119.415z"/>
			
				<rect x="274.717" y="90.235" transform="matrix(0.2931 -0.9561 0.9561 0.2931 60.8812 382.732)" style="fill:#FFFFFF;" width="29.112" height="119.917"/>
			
				<rect x="279.884" y="111.913" transform="matrix(0.2931 -0.9561 0.9561 0.2931 35.1763 391.3222)" style="fill:#FFFFFF;" width="4.693" height="119.918"/>
			
				<rect x="263.239" y="166.203" transform="matrix(0.2931 -0.9561 0.9561 0.2931 -28.494 413.7847)" style="fill:#FFFFFF;" width="4.692" height="119.918"/>
			
				<rect x="266.764" y="138.72" transform="matrix(0.2931 -0.9561 0.9561 0.2931 -15.0073 409.0271)" style="fill:#D69644;" width="4.693" height="151.886"/>
		</g>
		<path style="fill:#00747C;" d="M232.01,76.592c0,0-21.7-9.918-34.442,16.098L139.78,281.167c0,0,9.89-17.642,32.766-10.628
			L232.01,76.592z"/>
		<path style="fill:#00747C;" d="M317.757,315.061l-149.805-45.93c-12.36-3.79-25.45,3.158-29.24,15.518
			c-3.79,12.359,3.157,25.45,15.517,29.24l149.806,45.931L317.757,315.061z"/>
		<path style="fill:#EFE5C8;" d="M316.754,318.334L166.51,272.225c-10.573-3.242-21.774,2.702-25.017,13.276
			c-3.242,10.574,2.703,21.775,13.276,25.017l150.244,46.108L316.754,318.334z"/>
		<g>
			<g>
				<g>
					<path style="fill:#BCBEC0;" d="M158.787,274.482c0,0,2.433,0.689,6.691,1.894c4.249,1.237,10.336,2.943,17.608,5.099
						c7.27,2.162,15.772,4.618,24.845,7.369c9.074,2.748,18.753,5.678,28.432,8.609c9.658,2.998,19.316,5.995,28.371,8.806
						c9.057,2.804,17.473,5.539,24.706,7.824c7.231,2.29,13.228,4.29,17.44,5.647c4.202,1.389,6.603,2.183,6.603,2.183
						s-2.433-0.689-6.691-1.893c-4.249-1.236-10.337-2.941-17.608-5.098c-7.27-2.162-15.773-4.615-24.845-7.369
						c-9.074-2.748-18.752-5.679-28.431-8.61c-9.658-2.998-19.316-5.996-28.371-8.807c-9.056-2.808-17.473-5.539-24.705-7.824
						c-7.23-2.291-13.229-4.29-17.44-5.647C161.188,275.275,158.787,274.482,158.787,274.482z"/>
				</g>
			</g>
			<g>
				<g>
					<path style="fill:#BCBEC0;" d="M157.669,278.129c0,0,2.433,0.688,6.691,1.893c4.248,1.237,10.336,2.943,17.608,5.099
						c7.27,2.162,15.773,4.618,24.845,7.368c9.074,2.748,18.753,5.678,28.432,8.609c9.658,2.998,19.316,5.996,28.371,8.806
						c9.057,2.804,17.473,5.539,24.706,7.824c7.231,2.289,13.228,4.29,17.44,5.647c4.202,1.389,6.603,2.183,6.603,2.183
						s-2.434-0.689-6.691-1.893c-4.249-1.236-10.337-2.941-17.608-5.098c-7.27-2.162-15.773-4.614-24.845-7.369
						c-9.074-2.748-18.752-5.679-28.431-8.61c-9.658-2.998-19.316-5.996-28.371-8.807c-9.055-2.808-17.473-5.539-24.706-7.824
						c-7.23-2.291-13.229-4.29-17.44-5.647C160.07,278.922,157.669,278.129,157.669,278.129z"/>
				</g>
			</g>
			<g>
				<g>
					<path style="fill:#BCBEC0;" d="M156.55,281.775c0,0,2.433,0.688,6.691,1.894c4.249,1.237,10.336,2.943,17.608,5.099
						c7.271,2.162,15.772,4.618,24.846,7.368c9.074,2.748,18.753,5.678,28.432,8.609c9.658,2.998,19.316,5.996,28.371,8.806
						c9.057,2.804,17.473,5.539,24.706,7.824c7.231,2.289,13.228,4.29,17.44,5.647c4.202,1.389,6.603,2.183,6.603,2.183
						s-2.433-0.688-6.692-1.893c-4.248-1.236-10.336-2.941-17.608-5.098c-7.27-2.162-15.773-4.614-24.845-7.369
						c-9.074-2.748-18.753-5.679-28.432-8.61c-9.658-2.998-19.316-5.996-28.371-8.807c-9.055-2.808-17.473-5.539-24.706-7.824
						c-7.23-2.291-13.229-4.29-17.44-5.646C158.951,282.569,156.55,281.775,156.55,281.775z"/>
				</g>
			</g>
			<g>
				<g>
					<path style="fill:#BCBEC0;" d="M155.433,285.422c0,0,2.433,0.688,6.691,1.894c4.249,1.237,10.336,2.943,17.608,5.099
						c7.27,2.162,15.772,4.618,24.845,7.369c9.074,2.747,18.753,5.678,28.432,8.609c9.658,2.997,19.316,5.995,28.371,8.806
						c9.057,2.804,17.474,5.539,24.706,7.823c7.231,2.29,13.228,4.29,17.44,5.648c4.202,1.389,6.602,2.183,6.602,2.183
						s-2.433-0.688-6.692-1.893c-4.248-1.237-10.336-2.941-17.608-5.099c-7.27-2.162-15.773-4.615-24.845-7.369
						c-9.074-2.748-18.753-5.679-28.431-8.61c-9.658-2.998-19.316-5.996-28.371-8.807c-9.055-2.808-17.473-5.54-24.706-7.824
						c-7.23-2.291-13.229-4.289-17.441-5.646C157.833,286.215,155.433,285.422,155.433,285.422z"/>
				</g>
			</g>
			<g>
				<g>
					<path style="fill:#BCBEC0;" d="M154.314,289.069c0,0,2.433,0.689,6.691,1.894c4.248,1.237,10.336,2.943,17.608,5.099
						c7.27,2.162,15.773,4.618,24.845,7.369c9.074,2.748,18.753,5.678,28.432,8.609c9.658,2.998,19.316,5.995,28.371,8.806
						c9.057,2.804,17.473,5.539,24.706,7.824c7.231,2.29,13.229,4.29,17.44,5.647c4.202,1.389,6.603,2.183,6.603,2.183
						s-2.434-0.689-6.691-1.893c-4.249-1.236-10.337-2.941-17.608-5.098c-7.27-2.162-15.773-4.615-24.845-7.369
						c-9.074-2.748-18.752-5.679-28.431-8.61c-9.658-2.998-19.316-5.996-28.371-8.807c-9.055-2.808-17.473-5.54-24.706-7.824
						c-7.23-2.291-13.229-4.289-17.44-5.646C156.715,289.862,154.314,289.069,154.314,289.069z"/>
				</g>
			</g>
			<g>
				<g>
					<path style="fill:#BCBEC0;" d="M153.196,292.717c0,0,2.433,0.688,6.691,1.893c4.248,1.237,10.336,2.943,17.608,5.099
						c7.27,2.162,15.772,4.618,24.846,7.368c9.074,2.748,18.752,5.678,28.431,8.609c9.659,2.997,19.317,5.996,28.371,8.806
						c9.057,2.804,17.473,5.539,24.706,7.824c7.231,2.29,13.229,4.29,17.44,5.647c4.202,1.389,6.603,2.183,6.603,2.183
						s-2.434-0.688-6.691-1.893c-4.249-1.236-10.337-2.941-17.608-5.098c-7.271-2.162-15.773-4.614-24.845-7.369
						c-9.074-2.748-18.753-5.679-28.431-8.61c-9.658-2.998-19.316-5.996-28.371-8.807c-9.055-2.808-17.473-5.539-24.706-7.824
						c-7.23-2.291-13.229-4.29-17.44-5.646C155.597,293.51,153.196,292.717,153.196,292.717z"/>
				</g>
			</g>
			<g>
				<g>
					<path style="fill:#BCBEC0;" d="M152.078,296.364c0,0,2.433,0.688,6.691,1.894c4.249,1.237,10.336,2.943,17.608,5.099
						c7.27,2.162,15.772,4.618,24.846,7.368c9.074,2.747,18.753,5.678,28.431,8.609c9.659,2.997,19.317,5.996,28.372,8.806
						c9.057,2.804,17.473,5.539,24.706,7.824c7.231,2.29,13.229,4.29,17.44,5.647c4.202,1.389,6.603,2.183,6.603,2.183
						s-2.434-0.689-6.691-1.893c-4.249-1.237-10.337-2.941-17.608-5.099c-7.271-2.162-15.773-4.614-24.845-7.369
						c-9.074-2.748-18.752-5.679-28.431-8.61c-9.658-2.998-19.316-5.996-28.371-8.807c-9.055-2.808-17.473-5.539-24.705-7.824
						c-7.23-2.291-13.229-4.29-17.44-5.646C154.479,297.157,152.078,296.364,152.078,296.364z"/>
				</g>
			</g>
			<g>
				<g>
					<path style="fill:#BCBEC0;" d="M150.96,300.011c0,0,2.433,0.688,6.691,1.894c4.249,1.237,10.336,2.943,17.608,5.099
						c7.27,2.162,15.772,4.618,24.845,7.369c9.074,2.748,18.753,5.678,28.432,8.609c9.658,2.998,19.316,5.995,28.371,8.806
						c9.057,2.804,17.473,5.539,24.706,7.823c7.231,2.29,13.228,4.291,17.44,5.648c4.202,1.389,6.603,2.183,6.603,2.183
						s-2.433-0.688-6.691-1.893c-4.249-1.237-10.337-2.941-17.608-5.099c-7.27-2.162-15.773-4.615-24.845-7.369
						c-9.074-2.747-18.752-5.679-28.431-8.61c-9.658-2.998-19.316-5.996-28.371-8.807c-9.056-2.808-17.473-5.539-24.706-7.824
						c-7.23-2.291-13.229-4.29-17.44-5.647C153.36,300.804,150.96,300.011,150.96,300.011z"/>
				</g>
			</g>
			<g>
				<g>
					<path style="fill:#BCBEC0;" d="M149.841,303.658c0,0,2.433,0.688,6.691,1.893c4.249,1.237,10.336,2.943,17.608,5.099
						c7.271,2.162,15.773,4.618,24.846,7.369c9.074,2.748,18.752,5.678,28.431,8.609c9.659,2.998,19.317,5.995,28.372,8.806
						c9.057,2.804,17.473,5.539,24.706,7.824c7.231,2.29,13.229,4.29,17.44,5.647c4.202,1.389,6.603,2.183,6.603,2.183
						s-2.434-0.688-6.691-1.893c-4.249-1.236-10.337-2.941-17.608-5.098c-7.271-2.162-15.773-4.615-24.845-7.369
						c-9.074-2.748-18.753-5.679-28.431-8.61c-9.658-2.998-19.316-5.996-28.371-8.807c-9.055-2.808-17.473-5.54-24.706-7.824
						c-7.23-2.291-13.229-4.29-17.44-5.646C152.242,304.451,149.841,303.658,149.841,303.658z"/>
				</g>
			</g>
		</g>
	</g>
</g>
<g>
	<g>
		<path style="fill:#00B9C5;" d="M204.399,349.404c0,0.42-0.07,0.861-0.21,1.325c-0.14,0.464-0.354,0.92-0.643,1.371
			c-0.289,0.451-0.658,0.885-1.108,1.305c-0.45,0.419-0.99,0.796-1.62,1.128c-0.629,0.332-1.347,0.61-2.151,0.833
			c-0.805,0.223-1.71,0.365-2.715,0.426c0.612,0.228,1.123,0.52,1.535,0.878c0.411,0.359,0.754,0.759,1.03,1.2
			c0.275,0.442,0.494,0.907,0.656,1.397c0.162,0.49,0.299,0.971,0.413,1.443c0.113,0.472,0.216,0.924,0.308,1.357
			c0.092,0.433,0.201,0.813,0.328,1.141c0.126,0.328,0.286,0.59,0.479,0.787c0.192,0.197,0.45,0.295,0.774,0.295
			c0.297,0,0.623-0.05,0.977-0.151c0.354-0.101,0.717-0.243,1.089-0.426c0.371-0.184,0.739-0.402,1.102-0.656
			c0.363-0.253,0.702-0.533,1.017-0.839l1.521,2.57c0-0.008-0.084,0.046-0.25,0.164c-0.166,0.118-0.398,0.267-0.695,0.446
			c-0.297,0.179-0.649,0.376-1.056,0.59c-0.406,0.214-0.855,0.413-1.344,0.597c-0.49,0.184-1.008,0.337-1.554,0.46
			c-0.546,0.122-1.104,0.184-1.672,0.184c-0.638,0-1.183-0.158-1.633-0.472c-0.451-0.315-0.833-0.73-1.148-1.246
			c-0.314-0.516-0.577-1.104-0.787-1.764c-0.21-0.66-0.394-1.335-0.551-2.026c-0.158-0.69-0.304-1.366-0.44-2.026
			c-0.136-0.66-0.287-1.248-0.453-1.764c-0.166-0.516-0.363-0.931-0.59-1.246c-0.228-0.315-0.511-0.472-0.853-0.472h-0.826
			c-0.175,1.915-0.394,3.631-0.656,5.148c-0.262,1.517-0.61,2.805-1.042,3.863c-0.433,1.058-0.975,1.867-1.626,2.426
			c-0.652,0.56-1.449,0.839-2.394,0.839c-0.7,0-1.34-0.133-1.922-0.4c-0.582-0.267-1.106-0.632-1.574-1.095
			c-0.468-0.463-0.877-1.005-1.227-1.626c-0.35-0.621-0.641-1.287-0.872-2c-0.232-0.712-0.406-1.449-0.524-2.21
			c-0.118-0.761-0.177-1.517-0.177-2.269c0-1.355,0.169-2.682,0.505-3.98c0.336-1.299,0.822-2.525,1.456-3.679
			c0.634-1.154,1.401-2.214,2.302-3.181c0.9-0.966,1.913-1.801,3.036-2.505c1.124-0.704,2.348-1.253,3.673-1.647
			c1.325-0.393,2.726-0.59,4.204-0.59c0.656,0,1.307,0.061,1.954,0.184c0.647,0.123,1.263,0.302,1.849,0.538
			c0.586,0.236,1.13,0.529,1.633,0.879c0.503,0.35,0.936,0.75,1.298,1.2c0.363,0.45,0.649,0.951,0.859,1.501
			C204.294,348.158,204.399,348.757,204.399,349.404z M196.254,346.243c-1.443,0-2.73,0.201-3.863,0.603
			c-1.132,0.402-2.127,0.944-2.983,1.626c-0.857,0.682-1.587,1.474-2.19,2.374c-0.604,0.901-1.093,1.845-1.469,2.833
			c-0.376,0.988-0.649,1.989-0.82,3.003c-0.17,1.015-0.255,1.98-0.255,2.899c0,0.708,0.061,1.418,0.184,2.131
			c0.122,0.712,0.314,1.353,0.577,1.921c0.262,0.568,0.601,1.029,1.016,1.384c0.416,0.354,0.916,0.531,1.502,0.531
			c0.297,0,0.56-0.116,0.787-0.347c0.227-0.232,0.428-0.542,0.603-0.932c0.175-0.389,0.328-0.839,0.459-1.351
			c0.131-0.512,0.241-1.043,0.328-1.594c0.087-0.551,0.157-1.106,0.21-1.665c0.052-0.56,0.094-1.085,0.125-1.574
			c0.03-0.489,0.05-0.924,0.059-1.305c0.008-0.38,0.013-0.671,0.013-0.873c-0.682-0.323-1.2-0.625-1.554-0.905
			c-0.355-0.28-0.531-0.604-0.531-0.971c0-0.087,0.006-0.192,0.02-0.314c0.013-0.123,0.042-0.236,0.085-0.341
			c0.044-0.105,0.107-0.194,0.19-0.269c0.083-0.074,0.194-0.112,0.334-0.112c0.061,0,0.184,0.011,0.367,0.033
			c0.184,0.022,0.376,0.048,0.577,0.079c0.201,0.03,0.387,0.057,0.558,0.079c0.17,0.022,0.282,0.033,0.335,0.033l0.013-0.275
			c0.009-0.14,0.024-0.333,0.046-0.577c0.022-0.245,0.059-0.507,0.112-0.787c0.052-0.28,0.129-0.561,0.23-0.846
			c0.101-0.284,0.234-0.542,0.4-0.774c0.166-0.232,0.365-0.42,0.597-0.564c0.232-0.145,0.514-0.216,0.846-0.216
			c0.437,0,0.728,0.098,0.872,0.295c0.145,0.197,0.216,0.448,0.216,0.754v0.118c-0.009,0.332-0.059,0.772-0.151,1.318
			c-0.092,0.546-0.177,1.178-0.255,1.895c1.425-0.026,2.601-0.168,3.528-0.426c0.927-0.258,1.661-0.583,2.204-0.977
			c0.542-0.394,0.922-0.824,1.141-1.292c0.218-0.468,0.328-0.92,0.328-1.357c0-0.428-0.103-0.839-0.308-1.233
			c-0.206-0.393-0.509-0.741-0.912-1.042c-0.402-0.302-0.9-0.542-1.495-0.722C197.732,346.332,197.042,346.243,196.254,346.243z"/>
		<path style="fill:#00B9C5;" d="M208.885,365.969c-0.822,0-1.541-0.148-2.157-0.446c-0.617-0.297-1.13-0.697-1.541-1.2
			c-0.411-0.503-0.719-1.084-0.924-1.745c-0.206-0.66-0.308-1.353-0.308-2.079c0-0.49,0.048-1.008,0.144-1.554
			c0.096-0.546,0.243-1.082,0.439-1.607c0.197-0.524,0.444-1.025,0.741-1.501c0.297-0.477,0.645-0.897,1.042-1.259
			c0.398-0.363,0.844-0.651,1.338-0.866c0.494-0.214,1.042-0.321,1.646-0.321c0.49,0,0.944,0.079,1.364,0.236
			c0.42,0.157,0.785,0.378,1.095,0.662c0.311,0.284,0.553,0.628,0.728,1.03c0.175,0.402,0.262,0.853,0.262,1.351
			c0,0.543-0.133,1.085-0.4,1.626c-0.267,0.542-0.636,1.054-1.108,1.535c-0.472,0.481-1.034,0.91-1.685,1.285
			c-0.652,0.376-1.357,0.669-2.118,0.879c0.131,0.236,0.26,0.433,0.387,0.59c0.126,0.157,0.256,0.28,0.387,0.367
			c0.131,0.087,0.269,0.149,0.414,0.184c0.144,0.035,0.299,0.052,0.465,0.052c0.525,0,1.078-0.104,1.659-0.314
			c0.581-0.21,1.147-0.472,1.699-0.787c0.551-0.315,1.071-0.658,1.561-1.03c0.49-0.371,0.905-0.723,1.246-1.056l1.692,1.758
			c-0.77,0.796-1.587,1.5-2.453,2.111c-0.376,0.262-0.78,0.521-1.213,0.774c-0.433,0.254-0.887,0.478-1.364,0.675
			c-0.477,0.197-0.971,0.354-1.482,0.472C209.928,365.91,209.41,365.969,208.885,365.969z M207.141,359.805
			c0.314,0,0.658-0.081,1.029-0.243c0.372-0.162,0.717-0.369,1.036-0.623c0.319-0.253,0.588-0.529,0.807-0.826
			c0.219-0.297,0.328-0.585,0.328-0.866c0-0.394-0.072-0.717-0.216-0.97c-0.145-0.254-0.321-0.38-0.531-0.38
			c-0.376,0-0.697,0.07-0.964,0.21c-0.267,0.14-0.49,0.321-0.669,0.544c-0.18,0.223-0.324,0.477-0.433,0.761
			s-0.192,0.57-0.249,0.859c-0.057,0.289-0.094,0.569-0.111,0.84C207.149,359.381,207.141,359.613,207.141,359.805z"/>
		<path style="fill:#00B9C5;" d="M228.493,362.756c-0.201,0.28-0.47,0.608-0.807,0.984c-0.336,0.376-0.715,0.734-1.134,1.075
			c-0.42,0.341-0.87,0.63-1.351,0.866c-0.481,0.236-0.962,0.354-1.443,0.354c-0.577,0-1.058-0.186-1.443-0.557
			c-0.385-0.372-0.717-0.912-0.997-1.62c-0.21,0.245-0.468,0.494-0.774,0.747c-0.306,0.254-0.641,0.483-1.003,0.689
			c-0.363,0.206-0.741,0.373-1.134,0.505c-0.394,0.131-0.787,0.197-1.181,0.197c-0.419,0-0.829-0.086-1.226-0.256
			c-0.398-0.17-0.75-0.415-1.056-0.734c-0.306-0.319-0.551-0.708-0.734-1.167c-0.184-0.459-0.275-0.977-0.275-1.554
			c0-0.656,0.092-1.329,0.275-2.02c0.184-0.69,0.437-1.366,0.761-2.026c0.323-0.66,0.706-1.283,1.148-1.869
			c0.441-0.586,0.924-1.098,1.449-1.535c0.525-0.437,1.078-0.785,1.659-1.043c0.581-0.258,1.174-0.387,1.777-0.387
			c0.201,0,0.358,0.039,0.472,0.118c0.114,0.079,0.208,0.168,0.282,0.269c0.074,0.101,0.146,0.199,0.216,0.295
			c0.07,0.096,0.157,0.166,0.262,0.21c0.105,0.044,0.212,0.072,0.321,0.085c0.109,0.013,0.221,0.02,0.334,0.02
			c0.096,0,0.195-0.002,0.295-0.006c0.1-0.004,0.199-0.007,0.295-0.007c0.131,0,0.253,0.013,0.367,0.039
			c0.114,0.026,0.214,0.083,0.302,0.17c0.087,0.087,0.155,0.21,0.203,0.367c0.048,0.158,0.072,0.372,0.072,0.643
			c0,0.419-0.044,0.885-0.131,1.396c-0.088,0.512-0.184,1.036-0.289,1.574c-0.105,0.538-0.202,1.075-0.289,1.613
			c-0.088,0.538-0.131,1.047-0.131,1.528c0,0.411,0.037,0.732,0.111,0.964c0.074,0.232,0.234,0.348,0.479,0.348
			c0.184,0,0.376-0.046,0.577-0.138c0.201-0.092,0.404-0.212,0.61-0.361c0.205-0.149,0.411-0.317,0.616-0.505
			c0.206-0.188,0.4-0.382,0.584-0.583c0.428-0.472,0.861-1.005,1.298-1.6L228.493,362.756z M217.292,361.72
			c0,0.219,0.015,0.431,0.046,0.636c0.03,0.206,0.085,0.389,0.164,0.551c0.079,0.162,0.184,0.293,0.315,0.394
			c0.131,0.1,0.297,0.151,0.499,0.151c0.323,0,0.616-0.14,0.878-0.42c0.263-0.28,0.49-0.616,0.682-1.01
			c0.192-0.393,0.348-0.8,0.466-1.22c0.118-0.42,0.194-0.77,0.23-1.049l0.8-3.856c-0.358,0-0.708,0.089-1.049,0.269
			c-0.341,0.179-0.663,0.422-0.964,0.728c-0.302,0.306-0.579,0.656-0.832,1.049c-0.254,0.394-0.472,0.807-0.656,1.239
			c-0.184,0.433-0.326,0.868-0.426,1.305C217.342,360.924,217.292,361.335,217.292,361.72z"/>
		<path style="fill:#00B9C5;" d="M241.74,363.398c-0.621,0.481-1.233,0.91-1.836,1.286c-0.253,0.157-0.52,0.313-0.8,0.465
			c-0.28,0.153-0.556,0.289-0.827,0.407c-0.271,0.118-0.536,0.214-0.793,0.289c-0.258,0.074-0.496,0.111-0.715,0.111
			c-0.122,0-0.304-0.026-0.544-0.079c-0.241-0.052-0.503-0.16-0.787-0.321c-0.284-0.162-0.568-0.395-0.853-0.702
			c-0.284-0.306-0.531-0.713-0.741-1.22c-0.323,0.314-0.666,0.614-1.029,0.898c-0.363,0.284-0.739,0.531-1.128,0.741
			c-0.389,0.21-0.783,0.378-1.181,0.505c-0.398,0.126-0.798,0.19-1.2,0.19c-0.568,0-1.06-0.123-1.476-0.367
			c-0.415-0.245-0.761-0.571-1.036-0.977c-0.275-0.407-0.481-0.868-0.616-1.384c-0.136-0.516-0.203-1.049-0.203-1.6
			c0-0.56,0.072-1.126,0.216-1.699c0.144-0.572,0.354-1.128,0.629-1.665s0.61-1.045,1.003-1.521c0.394-0.477,0.839-0.9,1.338-1.272
			c0.499-0.372,1.041-0.68,1.627-0.924c0.585-0.245,1.211-0.398,1.875-0.459c0.026-1.119,0.126-2.226,0.302-3.318
			c0.175-1.093,0.406-2.134,0.695-3.122c0.289-0.988,0.628-1.902,1.017-2.741c0.389-0.839,0.816-1.565,1.279-2.177
			c0.463-0.612,0.958-1.091,1.482-1.437c0.525-0.345,1.067-0.518,1.626-0.518c0.411,0,0.761,0.107,1.049,0.321
			c0.289,0.214,0.523,0.499,0.702,0.852c0.179,0.355,0.308,0.766,0.387,1.233c0.079,0.468,0.118,0.951,0.118,1.45
			c0,0.306-0.013,0.621-0.039,0.944c-0.114,1.233-0.324,2.398-0.63,3.495c-0.306,1.098-0.665,2.167-1.075,3.207
			c-0.411,1.04-0.857,2.072-1.338,3.095c-0.481,1.023-0.949,2.086-1.403,3.187c-0.044,0.123-0.088,0.272-0.131,0.446
			c-0.044,0.175-0.085,0.365-0.124,0.57c-0.04,0.206-0.072,0.416-0.099,0.629c-0.026,0.214-0.039,0.422-0.039,0.623
			c0,0.254,0.015,0.494,0.046,0.722c0.03,0.227,0.08,0.431,0.151,0.61c0.07,0.179,0.163,0.321,0.282,0.426
			c0.118,0.105,0.265,0.157,0.439,0.157c0.166,0,0.348-0.033,0.544-0.098c0.197-0.066,0.404-0.155,0.623-0.269
			c0.218-0.114,0.439-0.243,0.662-0.387c0.223-0.144,0.439-0.29,0.649-0.439c0.481-0.35,0.983-0.748,1.508-1.194L241.74,363.398z
			 M232.716,356.054c-0.577,0.28-1.091,0.649-1.541,1.108c-0.451,0.459-0.826,0.955-1.128,1.488
			c-0.302,0.534-0.531,1.071-0.688,1.613c-0.158,0.542-0.236,1.032-0.236,1.469c0,0.175,0.02,0.35,0.059,0.524
			c0.04,0.175,0.111,0.333,0.216,0.472c0.105,0.14,0.253,0.254,0.446,0.341c0.192,0.087,0.441,0.131,0.748,0.131
			c0.157,0,0.313-0.039,0.465-0.118c0.153-0.079,0.299-0.182,0.439-0.309c0.14-0.126,0.273-0.271,0.4-0.433
			c0.127-0.162,0.243-0.33,0.348-0.505c0.245-0.402,0.468-0.857,0.669-1.364c-0.026-0.122-0.048-0.317-0.066-0.583
			c-0.018-0.267-0.031-0.564-0.039-0.892c-0.009-0.328-0.018-0.666-0.026-1.017c-0.009-0.35-0.016-0.668-0.02-0.957
			c-0.004-0.289-0.011-0.525-0.02-0.709C232.734,356.132,232.725,356.045,232.716,356.054z M238.881,346.544
			c0.052-0.612,0.079-1.097,0.079-1.456c0-0.472-0.042-0.8-0.125-0.984c-0.083-0.184-0.203-0.275-0.361-0.275
			c-0.28,0-0.533,0.177-0.761,0.531c-0.228,0.354-0.428,0.807-0.603,1.357c-0.175,0.551-0.328,1.159-0.459,1.823
			c-0.131,0.664-0.241,1.307-0.328,1.928c-0.087,0.621-0.157,1.18-0.21,1.679c-0.052,0.498-0.087,0.852-0.105,1.063
			c-0.035,0.428-0.064,0.841-0.085,1.239c-0.022,0.398-0.038,0.761-0.046,1.088c-0.009,0.328-0.013,0.615-0.013,0.859
			s0,0.433,0,0.564v0.131c0.499-1.136,0.958-2.269,1.377-3.397c0.175-0.48,0.352-0.985,0.531-1.515
			c0.179-0.529,0.343-1.06,0.492-1.594c0.148-0.533,0.277-1.058,0.387-1.574C238.761,347.498,238.837,347.008,238.881,346.544z"/>
	</g>
	<g>
		<path style="fill:#1C3F4E;" d="M163.727,395.13v-27.068h6.802c2.063,0,3.542,0.082,4.439,0.246
			c0.896,0.164,1.672,0.439,2.329,0.826c0.973,0.586,1.708,1.359,2.206,2.32c0.498,0.961,0.747,2.098,0.747,3.41
			c0,1.172-0.231,2.214-0.694,3.128c-0.463,0.914-1.204,1.805-2.224,2.672c1.207,0.609,2.115,1.439,2.725,2.487
			c0.609,1.049,0.914,2.306,0.914,3.77c0,1.207-0.206,2.35-0.615,3.428c-0.411,1.078-0.984,1.998-1.723,2.759
			c-0.703,0.738-1.57,1.26-2.602,1.564c-1.031,0.305-2.625,0.457-4.781,0.457H163.727z M170.055,378.643h0.404
			c1.242,0,2.159-0.261,2.751-0.782c0.591-0.522,0.888-1.327,0.888-2.417c0-0.949-0.293-1.678-0.879-2.188
			c-0.586-0.51-1.424-0.765-2.514-0.765c-0.176,0-0.311,0.003-0.404,0.009c-0.094,0.006-0.17,0.015-0.228,0.026L170.055,378.643z
			 M170.055,390.349h0.544c1.324,0,2.32-0.311,2.988-0.932c0.668-0.621,1.002-1.547,1.002-2.777c0-1.148-0.328-1.989-0.984-2.522
			c-0.656-0.533-1.693-0.8-3.111-0.8h-0.439V390.349z"/>
		<path style="fill:#1C3F4E;" d="M184.063,381.596c0-3.257,0.117-5.636,0.352-7.136c0.234-1.5,0.621-2.672,1.16-3.516
			c0.773-1.195,1.787-2.083,3.041-2.663c1.254-0.58,2.759-0.87,4.517-0.87c1.769,0,3.272,0.29,4.508,0.87
			c1.236,0.58,2.241,1.467,3.015,2.663c0.563,0.855,0.96,2.033,1.195,3.533c0.234,1.5,0.352,3.873,0.352,7.118
			c0,3.234-0.118,5.604-0.352,7.11c-0.235,1.506-0.633,2.687-1.195,3.542c-0.762,1.184-1.767,2.068-3.015,2.654
			c-1.248,0.586-2.75,0.879-4.508,0.879c-1.758,0-3.263-0.293-4.517-0.879c-1.254-0.586-2.268-1.47-3.041-2.654
			c-0.539-0.844-0.926-2.016-1.16-3.516C184.18,387.232,184.063,384.853,184.063,381.596z M195.734,384.039v-4.886
			c0-3-0.191-4.854-0.571-5.563c-0.381-0.709-1.069-1.064-2.065-1.064c-0.973,0-1.646,0.363-2.021,1.09
			c-0.375,0.727-0.562,2.572-0.562,5.537v4.886c0,2.93,0.187,4.766,0.562,5.51c0.375,0.744,1.061,1.116,2.057,1.116
			c0.984,0,1.664-0.363,2.039-1.09C195.546,388.849,195.734,387.004,195.734,384.039z"/>
		<path style="fill:#1C3F4E;" d="M205.524,381.596c0-3.257,0.117-5.636,0.352-7.136c0.234-1.5,0.621-2.672,1.16-3.516
			c0.773-1.195,1.787-2.083,3.041-2.663c1.254-0.58,2.759-0.87,4.517-0.87c1.769,0,3.272,0.29,4.508,0.87
			c1.236,0.58,2.241,1.467,3.015,2.663c0.563,0.855,0.96,2.033,1.195,3.533c0.234,1.5,0.352,3.873,0.352,7.118
			c0,3.234-0.118,5.604-0.352,7.11c-0.235,1.506-0.633,2.687-1.195,3.542c-0.762,1.184-1.767,2.068-3.015,2.654
			c-1.247,0.586-2.75,0.879-4.508,0.879c-1.758,0-3.263-0.293-4.517-0.879c-1.254-0.586-2.268-1.47-3.041-2.654
			c-0.539-0.844-0.926-2.016-1.16-3.516C205.641,387.232,205.524,384.853,205.524,381.596z M217.195,384.039v-4.886
			c0-3-0.191-4.854-0.571-5.563c-0.381-0.709-1.069-1.064-2.065-1.064c-0.973,0-1.646,0.363-2.021,1.09
			c-0.375,0.727-0.562,2.572-0.562,5.537v4.886c0,2.93,0.187,4.766,0.562,5.51c0.375,0.744,1.061,1.116,2.057,1.116
			c0.984,0,1.664-0.363,2.039-1.09C217.007,388.849,217.195,387.004,217.195,384.039z"/>
		<path style="fill:#1C3F4E;" d="M227.53,395.13v-27.068h6.328v11.231l4.728-11.231h6.468l-5.871,11.847l6.011,15.221h-6.644
			l-3.322-9.79l-1.371,2.583v7.206H227.53z"/>
		<path style="fill:#1C3F4E;" d="M246.143,385.955h5.8v0.791c0,1.488,0.176,2.537,0.527,3.146c0.351,0.609,0.943,0.914,1.775,0.914
			c0.668,0,1.195-0.231,1.582-0.694c0.387-0.463,0.58-1.093,0.58-1.89c0-1.312-0.943-2.572-2.83-3.779
			c-0.305-0.211-0.539-0.369-0.703-0.475l-0.299-0.193c-2.543-1.711-4.125-3-4.746-3.867c-0.445-0.656-0.785-1.395-1.019-2.215
			c-0.235-0.82-0.352-1.716-0.352-2.689c0-2.367,0.686-4.225,2.056-5.572c1.371-1.347,3.258-2.021,5.66-2.021
			c2.613,0,4.608,0.662,5.985,1.986c1.377,1.325,2.065,3.24,2.065,5.748c0,0.105-0.006,0.252-0.018,0.439
			c-0.012,0.188-0.018,0.334-0.018,0.439h-5.677v-0.334c0-1.183-0.185-2.08-0.554-2.689c-0.369-0.609-0.905-0.914-1.608-0.914
			c-0.598,0-1.078,0.214-1.441,0.642c-0.364,0.428-0.545,0.993-0.545,1.696c0,1.148,1.031,2.367,3.093,3.656
			c0.375,0.246,0.662,0.434,0.861,0.563c0.164,0.094,0.393,0.24,0.685,0.439c2.214,1.406,3.632,2.59,4.254,3.55
			c0.387,0.621,0.683,1.327,0.888,2.118c0.205,0.791,0.308,1.65,0.308,2.575c0,2.707-0.703,4.793-2.109,6.257
			c-1.406,1.465-3.416,2.197-6.029,2.197c-2.742,0-4.801-0.7-6.178-2.101c-1.377-1.4-2.065-3.483-2.065-6.249
			c0-0.176,0.003-0.36,0.009-0.554C246.088,386.684,246.108,386.377,246.143,385.955z"/>
	</g>
</g>
</svg>
